#extradata 0:        2, 0x0030001c
#tb 0: 1/1000
#media_type 0: audio
#codec_id 0: aac
#sample_rate 0: 16000
#channel_layout_name 0: mono
0,       -132,       -132,       64,        4, 0x02f70117, S=1, Skip Samples,       10, 0x02c80048
0,        -68,        -68,       64,      163, 0xd5f85007
0,         -4,         -4,       64,      127, 0x66484065
0,         60,         60,       64,       94, 0x55222bd6
0,        124,        124,       64,      314, 0x3c7e923a
0,        188,        188,       64,      207, 0x1efc5d1b
0,        252,        252,       64,      119, 0xb2a13601
0,        316,        316,       64,      184, 0xcafc6091
0,        380,        380,       64,      132, 0xddd33c0b
0,        444,        444,       64,      152, 0x83935031
0,        508,        508,       64,      227, 0x32a86bc4
0,        572,        572,       64,      122, 0xd04e3571
0,        636,        636,       64,      163, 0x57d44d16
0,        700,        700,       64,      147, 0x226043d7
0,        764,        764,       64,      119, 0x8ad931ed
0,        828,        828,       64,      153, 0xbb6e432f
0,        892,        892,       64,      185, 0xa01f4ff3
0,        956,        956,       64,      126, 0x85503ce6
0,       1020,       1020,       64,      246, 0x652c7b59
0,       1084,       1084,       64,      162, 0xc9f04da0
0,       1148,       1148,       64,      135, 0x71fa3be0
0,       1212,       1212,       64,      246, 0x7a6f7788
0,       1276,       1276,       64,      262, 0xd3097781
0,       1340,       1340,       64,       60, 0x09a118f5
0,       1404,       1404,       64,      255, 0xbab5793c
0,       1468,       1468,       64,      153, 0x6b6a44fb
0,       1532,       1532,       64,      160, 0x550e4530
0,       1596,       1596,       64,      215, 0x7fe66144
0,       1660,       1660,       64,      144, 0xcd723f7d
0,       1724,       1724,       64,      187, 0x2a0b5c1b
0,       1788,       1788,       64,      177, 0xb8c355d5
0,       1852,       1852,       64,      156, 0x867d4f3a
0,       1916,       1916,       64,      201, 0x62745ff9
0,       1980,       1980,       64,      137, 0x90c639e0, S=1, Skip Samples,       10, 0x048a00c2
